<?xml version="1.0" encoding="UTF-8"?>
<svg version="1.1" xmlns="http://www.w3.org/2000/svg" width="2158" height="678">
<path d="M0 0 C2.52174093 2.19923785 4.91544695 4.47416692 7.28515625 6.8359375 C8.04441406 7.57199219 8.80367187 8.30804688 9.5859375 9.06640625 C30.61616848 30.7504268 36.75250078 62.9046057 36.59765625 92.0234375 C36.59583344 92.74038788 36.59401062 93.45733826 36.59213257 94.1960144 C36.46804968 123.31022519 30.20120597 150.9939152 11.28515625 173.8359375 C10.80820313 174.4753125 10.33125 175.1146875 9.83984375 175.7734375 C-1.16322712 190.00495432 -19.69718238 198.80041217 -37.16992188 201.54296875 C-61.08675589 204.29624972 -85.08150009 200.97724542 -104.32006836 185.75317383 C-109.68739689 181.26096247 -114.71383239 175.95354211 -117.796875 169.609375 C-118.5884743 167.65381234 -118.5884743 167.65381234 -120.71484375 166.8359375 C-120.71484375 200.4959375 -120.71484375 234.1559375 -120.71484375 268.8359375 C-132.26484375 268.8359375 -143.81484375 268.8359375 -155.71484375 268.8359375 C-155.71484375 175.7759375 -155.71484375 82.7159375 -155.71484375 -13.1640625 C-144.82484375 -13.1640625 -133.93484375 -13.1640625 -122.71484375 -13.1640625 C-122.71484375 -1.6140625 -122.71484375 9.9359375 -122.71484375 21.8359375 C-121.72484375 21.8359375 -120.73484375 21.8359375 -119.71484375 21.8359375 C-119.44929687 21.09988281 -119.18375 20.36382812 -118.91015625 19.60546875 C-112.56570187 4.90540942 -97.08529913 -5.93121101 -82.68530273 -11.82519531 C-55.26021306 -22.2985693 -23.09367932 -18.40848682 0 0 Z M-103.71484375 32.8359375 C-121.27306017 53.81224933 -123.05217178 80.67969617 -121.71484375 106.8359375 C-119.68935016 127.26213463 -111.7217559 146.39840055 -95.71484375 159.8359375 C-82.68820231 169.35200947 -66.55658401 172.74446459 -50.65380859 170.55175781 C-35.2431831 167.81649095 -22.83937035 160.65797508 -13.55859375 147.86328125 C-2.65184686 131.11654115 0.89468717 112.58022524 0.66015625 92.8984375 C0.65317719 91.84885864 0.65317719 91.84885864 0.64605713 90.77807617 C0.56640687 80.55133245 0.23934017 70.7167875 -2.71484375 60.8359375 C-3.00488281 59.85681396 -3.00488281 59.85681396 -3.30078125 58.85791016 C-7.94616398 43.69948147 -16.06443918 30.00582705 -30.11328125 21.8671875 C-54.84089927 8.75340741 -84.14403511 12.4253367 -103.71484375 32.8359375 Z " fill="#1D4CA1" transform="translate(1075.71484375,393.1640625)"/>
<path d="M0 0 C8.15014829 64.95158974 8.15014829 64.95158974 -9.11162648 87.9900761 C-17.99204903 99.36032263 -28.71637648 109.28140261 -39.35579561 118.96932358 C-45.19627924 124.30139938 -50.81955037 129.84418504 -56.44460872 135.40159058 C-66.4720776 145.2974679 -76.64923305 155.02189964 -86.93847656 164.64477539 C-96.89856142 173.9604441 -106.76848802 183.35893019 -116.54003906 192.87231445 C-117.14712455 193.46331086 -117.75421003 194.05430727 -118.37969205 194.66321266 C-120.82041215 197.03990329 -123.26055907 199.41718029 -125.69994722 201.79523799 C-144.28162917 219.90810783 -162.94182832 237.94319073 -181.8416748 255.72433662 C-183.81246366 257.57874129 -185.77785834 259.43858569 -187.73859406 261.30361557 C-190.40558752 263.83514381 -193.08726741 266.34995535 -195.77435303 268.86012268 C-196.55645511 269.60767635 -197.3385572 270.35523003 -198.14435935 271.12543684 C-198.86293624 271.78965617 -199.58151313 272.4538755 -200.32186508 273.13822269 C-200.94004978 273.71927676 -201.55823448 274.30033083 -202.19515204 274.8989926 C-204 276 -204 276 -206.11332154 275.75040954 C-208.29155852 274.8840352 -209.93005421 273.80658804 -211.80859375 272.40234375 C-212.54464844 271.85642578 -213.28070313 271.31050781 -214.0390625 270.74804688 C-214.83054687 270.15056641 -215.62203125 269.55308594 -216.4375 268.9375 C-217.27152344 268.31552734 -218.10554688 267.69355469 -218.96484375 267.05273438 C-226.06834225 261.74096652 -233.11585139 256.35480926 -240.15991211 250.96459961 C-245.89583266 246.58122654 -251.67610964 242.26565883 -257.5 238 C-265.1214867 232.41770707 -272.64505411 226.71645212 -280.14648438 220.97412109 C-286.8274298 215.8693142 -293.57799414 210.86667538 -300.35888672 205.89575195 C-318.20966832 192.79033168 -318.20966832 192.79033168 -321 190 C-321.09409479 187.97505769 -321.11743122 185.9468013 -321.11352539 183.91967773 C-321.11344986 182.61840439 -321.11337433 181.31713104 -321.11329651 179.97642517 C-321.10818909 178.54548098 -321.10297308 177.11453718 -321.09765625 175.68359375 C-321.09579203 174.2277074 -321.09436815 172.77182043 -321.09336853 171.31593323 C-321.08954365 167.47720621 -321.07971364 163.63851681 -321.06866455 159.79980469 C-321.05844978 155.88542184 -321.05387077 151.97103294 -321.04882812 148.05664062 C-321.03809134 140.37107657 -321.02101529 132.68554355 -321 125 C-317.16197763 127.14138835 -313.48737041 129.21281623 -310.046875 131.9609375 C-309.35553467 132.50733887 -308.66419434 133.05374023 -307.9519043 133.61669922 C-307.22527588 134.19693848 -306.49864746 134.77717773 -305.75 135.375 C-299.47490955 140.32223128 -293.13955463 145.16086799 -286.6875 149.875 C-279.89819437 154.84029218 -273.17851445 159.88665692 -266.5 165 C-259.12279682 170.64668132 -251.68932713 176.20509883 -244.19042969 181.68896484 C-237.07903476 186.9040871 -230.07925569 192.26172352 -223.11523438 197.671875 C-222.28830078 198.30867187 -221.46136719 198.94546875 -220.609375 199.6015625 C-219.88717773 200.16182129 -219.16498047 200.72208008 -218.42089844 201.29931641 C-216.42855 202.69894319 -214.46322325 203.91051315 -212.34869385 205.10629272 C-210.69109039 206.04367783 -210.69109039 206.04367783 -209 207 C-208.34413058 206.34299142 -208.34413058 206.34299142 -207.67501128 205.67270994 C-181.78586128 179.73884728 -155.89152492 153.81017383 -129.99040071 127.88827005 C-126.88353642 124.77890421 -123.77671569 121.66949485 -120.66992188 118.56005859 C-120.05138924 117.94100134 -119.4328566 117.32194408 -118.79558055 116.68412751 C-108.76779391 106.64762762 -98.74354386 96.60760256 -88.72058614 86.56628054 C-78.44341554 76.27043644 -68.16247729 65.97836598 -57.87799871 55.68982172 C-51.52711686 49.33618951 -45.17922629 42.97959827 -38.83507667 36.61924374 C-34.49007405 32.26370567 -30.14143214 27.91182367 -25.78985597 23.56285322 C-23.27572195 21.05000587 -20.76327651 18.53552644 -18.25512123 16.01671028 C-15.54178827 13.2919281 -12.82083817 10.57483783 -10.09902954 7.85852051 C-9.29942893 7.05309421 -8.49982831 6.24766791 -7.67599738 5.41783476 C-6.5884299 4.33624043 -6.5884299 4.33624043 -5.47889137 3.23279572 C-4.85083395 2.60397885 -4.22277652 1.97516198 -3.57568705 1.32729006 C-2 0 -2 0 0 0 Z " fill="#00ACEC" transform="translate(335,19)"/>
<path d="M0 0 C12.58104465 11.83027706 18.92005017 28.18605365 20.1875 45.1875 C20.32565329 50.14847622 20.3142804 55.10812232 20.30102539 60.07055664 C20.30074288 61.55954995 20.30090251 63.04854339 20.3014679 64.53753662 C20.30175336 68.55548294 20.29589735 72.57339906 20.28889394 76.5913384 C20.28261847 80.7993703 20.28205329 85.00740298 20.28086853 89.21543884 C20.27776754 97.1731136 20.26957083 105.13077453 20.25951904 113.08844322 C20.24831955 122.15256463 20.2428378 131.21668672 20.23782361 140.28081334 C20.22738713 158.91638498 20.20905704 177.55193767 20.1875 196.1875 C9.2975 196.1875 -1.5925 196.1875 -12.8125 196.1875 C-12.8125 185.9575 -12.8125 175.7275 -12.8125 165.1875 C-16.25213165 168.62713165 -18.99121942 171.63691057 -21.875 175.4375 C-32.33412756 188.28234592 -46.75964881 195.74937008 -62.8125 199.1875 C-63.67101563 199.37183594 -64.52953125 199.55617188 -65.4140625 199.74609375 C-86.4854555 202.48295284 -108.81019397 200.18249184 -126.796875 188.19921875 C-129.24481085 186.28908699 -131.53883855 184.30056827 -133.8125 182.1875 C-134.44414063 181.64609375 -135.07578125 181.1046875 -135.7265625 180.546875 C-146.24860849 170.99823415 -151.47081204 157.35773952 -152.19140625 143.41796875 C-152.51247528 132.46127358 -152.41840751 122.3083757 -147.8125 112.1875 C-147.2865625 110.98867188 -147.2865625 110.98867188 -146.75 109.765625 C-138.688225 93.53010591 -123.42980624 84.67250467 -106.875 79.0625 C-91.09740743 74.53932249 -74.55572325 73.59494097 -58.24755859 72.67944336 C-55.05103872 72.49935428 -51.85567393 72.30442591 -48.66015625 72.10742188 C-37.36289052 71.43103883 -26.1309549 70.99023073 -14.8125 71.1875 C-14.8942642 66.89510517 -15.00702716 62.60404026 -15.125 58.3125 C-15.14755859 57.10851562 -15.17011719 55.90453125 -15.19335938 54.6640625 C-15.5320422 43.33358251 -17.37716322 32.98472614 -25.41015625 24.5 C-36.4454108 14.44509836 -51.37269898 12.40329965 -65.828125 12.90625 C-79.18058661 13.8487767 -91.59679982 17.16962061 -101.8125 26.1875 C-103.34561341 28.13575928 -103.34561341 28.13575928 -104.5 30.1875 C-104.89574219 30.8475 -105.29148437 31.5075 -105.69921875 32.1875 C-106.79510536 34.15625068 -107.80483471 36.17216942 -108.8125 38.1875 C-120.3625 38.1875 -131.9125 38.1875 -143.8125 38.1875 C-141.76647173 21.81927384 -134.52858861 8.98056701 -121.625 -1.1875 C-88.7060129 -25.72160038 -31.90609908 -26.73213706 0 0 Z M-45.90014648 100.30444336 C-48.84373523 100.49794476 -51.78794821 100.67796185 -54.73242188 100.85742188 C-63.98759933 101.44869509 -73.16033255 102.22690145 -82.328125 103.65234375 C-83.08984512 103.76991531 -83.85156525 103.88748688 -84.6363678 104.00862122 C-94.70689052 105.6871713 -104.08911013 109.20347453 -110.8125 117.1875 C-116.35020864 125.28639888 -117.70345645 133.76413045 -116.1875 143.375 C-113.90821173 152.85204068 -107.92976402 159.0473994 -100.01171875 164.40625 C-85.60658266 172.54962458 -68.20990369 171.19724055 -52.8125 167.1875 C-39.28737171 162.91393516 -27.06190225 153.61850621 -19.83984375 141.265625 C-16.33631217 134.17863336 -14.6760033 126.89633027 -14.71484375 119.01171875 C-14.71806641 117.85478516 -14.72128906 116.69785156 -14.72460938 115.50585938 C-14.73298828 114.30767578 -14.74136719 113.10949219 -14.75 111.875 C-14.75451172 110.65748047 -14.75902344 109.43996094 -14.76367188 108.18554688 C-14.77543422 105.18614774 -14.79187174 102.18684911 -14.8125 99.1875 C-25.20719126 98.92814731 -35.53362132 99.6155044 -45.90014648 100.30444336 Z " fill="#1D4CA1" transform="translate(1656.8125,394.8125)"/>
<path d="M0 0 C11.55 0 23.1 0 35 0 C35 58.08 35 116.16 35 176 C41.22273869 170.64589021 41.22273869 170.64589021 46.90634155 164.93128967 C47.57184525 164.20646393 48.23734894 163.48163818 48.92301941 162.73484802 C49.62308609 161.96520218 50.32315277 161.19555634 51.04443359 160.40258789 C58.85015843 151.90795743 66.75595163 143.51462539 74.72881126 135.1772089 C79.53162756 130.14819777 84.28796242 125.08683683 88.95507812 119.93139648 C122.95861202 82.4411483 122.95861202 82.4411483 143.13789558 81.18965435 C152.21919905 81.0260864 161.13027976 82.11886866 170 84 C168.59771936 87.17098328 166.94394221 89.30370777 164.49459839 91.74591064 C163.40504852 92.8395845 163.40504852 92.8395845 162.29348755 93.95535278 C161.49651459 94.74513519 160.69954163 95.5349176 159.87841797 96.34863281 C159.03931885 97.18802399 158.20021973 98.02741516 157.33569336 98.89224243 C155.03782233 101.18895972 152.73557743 103.48118096 150.43131018 105.7714777 C148.02274213 108.16753468 145.61984484 110.56926488 143.21633911 112.97039795 C138.66591044 117.51461297 134.11040801 122.0537061 129.55305874 126.59097934 C124.36415889 131.75751666 119.18094375 136.92974101 113.99819732 142.10244989 C103.33844297 152.74130483 92.67157395 163.37300007 82 174 C83.62756326 178.38736449 85.85585109 181.46704492 88.9375 184.9375 C92.872219 189.47481608 96.69081321 194.06932057 100.375 198.8125 C104.35515617 203.92677514 108.40102537 208.98042907 112.5 214 C116.53220165 218.9393436 120.51811019 223.90819449 124.4375 228.9375 C128.53937923 234.1975569 132.74578038 239.36250363 137 244.5 C141.71064042 250.18868092 146.33963869 255.92777854 150.88012695 261.75292969 C154.42848257 266.29659547 158.04645816 270.78035419 161.6875 275.25 C162.2350293 275.92313232 162.78255859 276.59626465 163.34667969 277.28979492 C165.75838531 280.2533624 168.17440374 283.21313844 170.6015625 286.1640625 C171.33117188 287.05867188 172.06078125 287.95328125 172.8125 288.875 C173.43769531 289.63554688 174.06289062 290.39609375 174.70703125 291.1796875 C176 293 176 293 176 295 C134.34299863 297.94428723 134.34299863 297.94428723 126.34765625 291.70703125 C123.2326704 288.28509277 121.0865003 284.43646481 119.12890625 280.26123047 C117.37764796 276.75341163 114.94244264 273.92841112 112.4375 270.9375 C111.5468656 269.80384661 110.66015792 268.66709758 109.77734375 267.52734375 C106.73516115 263.64382293 103.61947055 259.82152283 100.5 256 C95.99232786 250.47666343 91.55157233 244.90815403 87.1640625 239.2890625 C83.66223732 234.81563265 80.09188136 230.40133428 76.5 226 C71.37384138 219.71845775 66.33080364 213.37763702 61.33984375 206.98828125 C59.24373944 204.3112866 57.12933061 201.65059861 55 199 C53.65065615 199.63363507 52.3233074 200.31364751 51 201 C50.43465546 201.27023987 49.86931091 201.54047974 49.28683472 201.81890869 C43.34032292 204.9411436 38.91168855 208.88029477 36 215 C32.95441333 227.12511961 34.21875099 240.66467881 34.50646973 253.04626465 C34.61675806 258.61426385 34.61391839 264.18326675 34.63051605 269.75218201 C34.66804219 278.17198508 34.84718855 286.57796145 35 295 C23.45 295 11.9 295 0 295 C0 197.65 0 100.3 0 0 Z " fill="#1D4CA1" transform="translate(1963,296)"/>
<path d="M0 0 C2.53165047 2.22196845 4.96552308 4.50561765 7.3671875 6.8671875 C8.06714844 7.55425781 8.76710938 8.24132812 9.48828125 8.94921875 C30.89145308 31.43715173 36.11610286 65.13120672 35.5546875 94.953125 C34.93249575 114.69993575 31.22483956 133.14710837 22.3671875 150.8671875 C21.83222656 151.93839844 21.29726563 153.00960937 20.74609375 154.11328125 C16.39028833 162.14592961 10.77568444 168.44957463 4.3671875 174.8671875 C3.63628906 175.6096875 2.90539062 176.3521875 2.15234375 177.1171875 C-17.46242724 195.81879411 -43.98390848 199.65075574 -69.9609375 199.1484375 C-94.79752943 198.31546069 -116.2813954 188.61806168 -133.6328125 170.8671875 C-151.22580399 151.80556367 -159.68266095 125.28865273 -159.8359375 99.625 C-159.84163757 98.85775604 -159.84733765 98.09051208 -159.85321045 97.30001831 C-159.86259975 95.68147125 -159.86917006 94.06290559 -159.87304688 92.44433594 C-159.88265061 90.03283814 -159.91368896 87.62223239 -159.9453125 85.2109375 C-160.04228978 71.11354137 -158.67470856 56.97321817 -153.8828125 43.6171875 C-153.62459717 42.87887695 -153.36638184 42.14056641 -153.1003418 41.37988281 C-144.54544935 17.63422747 -129.26540426 -0.75149257 -106.3203125 -11.8203125 C-72.65803694 -26.33567671 -28.95371091 -23.45508332 0 0 Z M-87.6328125 15.8671875 C-88.35855469 16.14433594 -89.08429688 16.42148437 -89.83203125 16.70703125 C-103.49708473 22.53280061 -113.18103535 36.59329531 -118.6328125 49.8671875 C-128.00781618 77.16228019 -127.58955709 110.96592641 -115.0078125 137.1171875 C-107.55353917 151.7441752 -96.1803564 160.766416 -80.6328125 165.8671875 C-65.7218594 170.34556249 -48.40914228 168.68284913 -34.3828125 162.2421875 C-18.84399153 153.8719426 -9.44356385 139.64270581 -4.3828125 123.0546875 C2.98502823 94.8726967 1.81664665 62.03533428 -12.98046875 36.39453125 C-21.25683151 23.73541374 -33.24230569 15.72890542 -47.98901367 12.32299805 C-60.8829358 10.09999014 -75.60499197 10.56459995 -87.6328125 15.8671875 Z " fill="#1D4CA1" transform="translate(833.6328125,396.1328125)"/>
<path d="M0 0 C115.17 0 230.34 0 349 0 C349 16.83 349 33.66 349 51 C233.83 51 118.66 51 0 51 C0 34.17 0 17.34 0 0 Z " fill="#1D4CA1" transform="translate(0,474)"/>
<path d="M0 0 C115.17 0 230.34 0 349 0 C349 16.5 349 33 349 50 C233.83 50 118.66 50 0 50 C0 33.5 0 17 0 0 Z " fill="#1D4CA1" transform="translate(0,558)"/>
<path d="M0 0 C115.17 0 230.34 0 349 0 C349 16.5 349 33 349 50 C233.83 50 118.66 50 0 50 C0 33.5 0 17 0 0 Z " fill="#1D4CA1" transform="translate(0,391)"/>
<path d="M0 0 C115.17 0 230.34 0 349 0 C349 16.5 349 33 349 50 C233.83 50 118.66 50 0 50 C0 33.5 0 17 0 0 Z " fill="#1D4CA0" transform="translate(0,308)"/>
<path d="M0 0 C9.02835477 8.81708281 15.15250929 20.04703763 17.50390625 32.4453125 C17.50390625 34.0953125 17.50390625 35.7453125 17.50390625 37.4453125 C6.28390625 37.4453125 -4.93609375 37.4453125 -16.49609375 37.4453125 C-18.47609375 33.4853125 -20.45609375 29.5253125 -22.49609375 25.4453125 C-31.71776418 15.67309458 -43.12566525 10.64740969 -56.546875 10.14453125 C-58.30067965 10.12525324 -60.05471824 10.12171813 -61.80859375 10.1328125 C-62.72995117 10.13772705 -63.65130859 10.1426416 -64.60058594 10.14770508 C-77.88075458 10.37558548 -89.01466302 13.8538505 -98.9921875 22.8359375 C-104.08766619 28.28876145 -105.95270406 34.61656651 -105.83203125 41.94140625 C-104.97835077 48.30430377 -101.86333368 53.75169404 -96.87109375 57.7578125 C-88.20135166 63.34533493 -78.99351843 66.38543922 -69.0234375 68.75 C-67.27964561 69.18060226 -67.27964561 69.18060226 -65.50062561 69.61990356 C-60.58713892 70.83320619 -55.66788426 72.02218576 -50.74829102 73.21044922 C-12.31499361 82.53585503 -12.31499361 82.53585503 2.50390625 93.4453125 C3.09300781 93.86425781 3.68210937 94.28320312 4.2890625 94.71484375 C13.5934289 101.82994747 19.35255246 113.39643456 21.22265625 124.796875 C22.96877249 141.23946961 19.8556911 156.22583512 9.87890625 169.5078125 C-5.11995501 187.35561947 -26.79258094 195.90337902 -49.49609375 198.4453125 C-54.25040274 198.72493857 -58.98433175 198.78005333 -63.74609375 198.7578125 C-65.01735107 198.75217285 -66.2886084 198.7465332 -67.59838867 198.74072266 C-91.62148521 198.43149781 -114.25147346 192.01476407 -132.01953125 175.1171875 C-140.93995638 165.49325881 -146.59320296 153.56933674 -146.49609375 140.4453125 C-141.64027543 140.14719851 -136.78982927 139.93035903 -131.92700195 139.78613281 C-130.27631881 139.72600806 -128.62626923 139.64426782 -126.9777832 139.54003906 C-121.60549165 139.20903711 -116.74055439 139.11736895 -111.49609375 140.4453125 C-108.70356546 143.27631945 -107.33164814 145.75506162 -105.81176758 149.41333008 C-102.5155882 157.00940574 -94.88924794 161.37465467 -87.49609375 164.4140625 C-69.89780644 170.46347376 -50.02593513 170.7029239 -32.99609375 162.6328125 C-25.08316302 158.31473471 -18.68069079 153.512264 -15.9140625 144.5625 C-14.56423847 137.7250736 -14.74352331 131.22434246 -18.3125 125.1484375 C-28.4583181 110.54917448 -48.22690785 108.22489922 -64.26953125 104.27734375 C-65.43372086 103.98986519 -65.43372086 103.98986519 -66.62142944 103.69657898 C-70.49949931 102.73980504 -74.37940533 101.79310667 -78.26513672 100.86791992 C-85.8707102 99.03242449 -93.31706489 96.96238212 -100.703125 94.37109375 C-101.73563385 94.00975342 -101.73563385 94.00975342 -102.78900146 93.64111328 C-116.53837195 88.66441735 -129.73780597 79.77121537 -136.49609375 66.4453125 C-138.99556668 60.2970913 -141.02132966 54.09200983 -141.49609375 47.4453125 C-141.55925781 46.61128906 -141.62242188 45.77726562 -141.6875 44.91796875 C-142.25031856 31.39216784 -138.78690927 19.14148808 -130.49609375 8.4453125 C-129.91085937 7.66800781 -129.325625 6.89070313 -128.72265625 6.08984375 C-116.64274162 -8.71697144 -97.96440118 -16.63248696 -79.49609375 -19.5546875 C-78.74585938 -19.68488281 -77.995625 -19.81507813 -77.22265625 -19.94921875 C-50.13770663 -23.8407345 -21.00699172 -18.04093903 0 0 Z " fill="#1D4CA1" transform="translate(1300.49609375,396.5546875)"/>
<path d="M0 0 C71.94 0 143.88 0 218 0 C218 10.56 218 21.12 218 32 C187.97 32 157.94 32 127 32 C127 114.5 127 197 127 282 C115.12 282 103.24 282 91 282 C91 199.5 91 117 91 32 C60.97 32 30.94 32 0 32 C0 21.44 0 10.88 0 0 Z " fill="#1D4CA1" transform="translate(448,309)"/>
<path d="M0 0 C14.00335023 12.76967022 22.4323778 28.44999391 24.52734375 47.3046875 C12.97734375 47.3046875 1.42734375 47.3046875 -10.47265625 47.3046875 C-12.12265625 43.3446875 -13.77265625 39.3846875 -15.47265625 35.3046875 C-23.95256357 22.98482215 -34.38222801 15.14808987 -49.19189453 11.68188477 C-65.93104907 8.91352748 -82.80319605 10.63612925 -96.9140625 20.34375 C-113.94680305 33.39785039 -121.05899196 52.57353833 -123.87890625 73.2890625 C-126.28840158 96.44698988 -123.86583996 123.84308771 -109.22851562 142.92675781 C-99.4573353 154.90825638 -87.13942437 163.60588132 -71.47265625 165.3046875 C-54.27555158 166.3397825 -38.31285418 163.49476333 -24.29296875 152.90234375 C-21.60829859 150.42962123 -19.7701111 148.2013153 -17.84765625 145.1171875 C-17.02394531 143.82748047 -17.02394531 143.82748047 -16.18359375 142.51171875 C-13.92597615 138.27997434 -12.25395752 133.75794067 -10.47265625 129.3046875 C1.07734375 129.3046875 12.62734375 129.3046875 24.52734375 129.3046875 C22.39469203 150.63120471 12.10870703 166.14128806 -3.59765625 180.0546875 C-25.18789021 196.97676277 -53.71237842 199.25704856 -80.12890625 197.08642578 C-100.06365261 194.65858531 -117.52504063 185.42860725 -131.47265625 171.3046875 C-132.28734375 170.48871094 -133.10203125 169.67273438 -133.94140625 168.83203125 C-151.94273826 149.87514909 -160.51071323 123.12629411 -160.67578125 97.28125 C-160.68284088 96.54191223 -160.68990051 95.80257446 -160.69717407 95.04083252 C-160.92786004 63.80439533 -160.92786004 63.80439533 -157.47265625 51.3046875 C-157.26866211 50.5617041 -157.06466797 49.8187207 -156.85449219 49.05322266 C-149.79242754 24.27431898 -135.11660081 2.10117725 -112.31835938 -10.71826172 C-102.57149573 -15.87791097 -92.34138118 -18.87023839 -81.47265625 -20.6953125 C-80.73273438 -20.82679688 -79.9928125 -20.95828125 -79.23046875 -21.09375 C-51.04576954 -25.15146934 -21.77471669 -18.55693216 0 0 Z " fill="#1D4CA1" transform="translate(1887.47265625,397.6953125)"/>
<path d="M0 0 C11.55 0 23.1 0 35 0 C35 17.49 35 34.98 35 53 C51.17 53 67.34 53 84 53 C84 62.57 84 72.14 84 82 C67.83 82 51.66 82 35 82 C35.06296432 98.64693108 35.13821993 115.29365419 35.23571491 131.94041252 C35.28059719 139.67054756 35.3200291 147.40063731 35.34643555 155.13085938 C35.36947715 161.87194712 35.40294343 168.61289063 35.44870156 175.35386384 C35.47255115 178.92007246 35.49133382 182.48613895 35.49761391 186.05242538 C35.50483679 190.04280526 35.53534289 194.03269331 35.56762695 198.02294922 C35.56619186 199.19324173 35.56475677 200.36353424 35.5632782 201.56929016 C35.67039849 210.96012572 36.93388333 219.50656176 43 227 C53.10271328 236.82208235 68.01690663 235 81 235 C81 244.57 81 254.14 81 264 C73.57641112 265.64968642 67.84851314 266.35343499 60.4375 266.3125 C59.38336914 266.30758545 58.32923828 266.3026709 57.24316406 266.29760742 C40.93591733 266.05501411 24.45569669 263.46891162 12.26171875 251.7265625 C0.95177524 238.09212283 -0.1629032 221.51513142 -0.11352539 204.49389648 C-0.11324279 203.15268455 -0.11340267 201.81147246 -0.1139679 200.47026062 C-0.11425304 196.8551926 -0.10840222 193.24015824 -0.10139394 189.62509799 C-0.09511314 185.83747452 -0.09455288 182.04985016 -0.09336853 178.26222229 C-0.09026909 171.10140605 -0.08207451 163.94060519 -0.07201904 156.77979571 C-0.06081468 148.62254965 -0.05533659 140.46530283 -0.05032361 132.30805099 C-0.03989065 115.53869025 -0.02156254 98.76935069 0 82 C-11.55 82 -23.1 82 -35 82 C-35 72.43 -35 62.86 -35 53 C-23.45 53 -11.9 53 0 53 C0 35.51 0 18.02 0 0 Z " fill="#1D4CA1" transform="translate(1385,327)"/>
</svg>
